<?xml version="1.0" encoding="UTF-8" standalone="no"?>
<!-- Generator: Adobe Illustrator 17.0.0, SVG Export Plug-In . SVG Version: 6.00 Build 0)  -->

<svg
   xmlns:dc="http://purl.org/dc/elements/1.1/"
   xmlns:cc="http://creativecommons.org/ns#"
   xmlns:rdf="http://www.w3.org/1999/02/22-rdf-syntax-ns#"
   xmlns:svg="http://www.w3.org/2000/svg"
   xmlns="http://www.w3.org/2000/svg"
   xmlns:sodipodi="http://sodipodi.sourceforge.net/DTD/sodipodi-0.dtd"
   xmlns:inkscape="http://www.inkscape.org/namespaces/inkscape"
   version="1.1"
   id="Layer_1"
   x="0px"
   y="0px"
   width="42px"
   height="42px"
   viewBox="0 0 42 42"
   enable-background="new 0 0 42 42"
   xml:space="preserve"
   inkscape:version="0.91 r13725"
   sodipodi:docname="cleanse.svg"><metadata
     id="metadata19"><rdf:RDF><cc:Work
         rdf:about=""><dc:format>image/svg+xml</dc:format><dc:type
           rdf:resource="http://purl.org/dc/dcmitype/StillImage" /><dc:title></dc:title></cc:Work></rdf:RDF></metadata><defs
     id="defs17"><pattern
       y="0"
       x="0"
       height="6"
       width="6"
       patternUnits="userSpaceOnUse"
       id="EMFhbasepattern" /></defs><sodipodi:namedview
     pagecolor="#ffffff"
     bordercolor="#666666"
     borderopacity="1"
     objecttolerance="10"
     gridtolerance="10"
     guidetolerance="10"
     inkscape:pageopacity="0"
     inkscape:pageshadow="2"
     inkscape:window-width="1920"
     inkscape:window-height="1027"
     id="namedview15"
     showgrid="false"
     inkscape:zoom="3.9732668"
     inkscape:cx="-70.281109"
     inkscape:cy="14.530412"
     inkscape:window-x="-8"
     inkscape:window-y="-8"
     inkscape:window-maximized="1"
     inkscape:current-layer="g4240" /><g
     id="g4240"
     transform="matrix(3.7928039,0,0,4.0073993,-205.44493,-57.020786)" /><path
     d="m 35.463185,2.167692 -8.253578,17.6244 c 0.04737,0.01466 0.0946,0.0302 0.141525,0.04685 0.348512,0.123617 0.675733,0.274286 0.980411,0.450892 0.368314,0.213538 0.703144,0.465324 1.002286,0.753238 L 37.603786,3.3836619 c 0.304867,-0.6510083 0.07288,-1.4509837 -0.518268,-1.78675 -0.591147,-0.335825 -1.317416,-0.080267 -1.622333,0.5707907 z"
     id="path3402"
     inkscape:connector-curvature="0" /><path
     d="m 8.1943051,34.853909 c 1.312163,1.303335 2.9233209,2.43903 4.7887239,3.375348 3.150159,1.581386 5.922464,2.048353 6.038895,2.067505 0.0033,5.57e-4 0.0066,0.0012 0.0097,0.0017 0.03674,0.0053 0.0737,0.0083 0.110744,0.0083 0.009,0 0.01786,-1.7e-4 0.02681,-5.05e-4 3.313984,-0.119154 5.896885,-1.334691 7.676833,-3.61286 2.340988,-2.996241 3.187057,-7.501386 3.022603,-11.37447 -0.04716,-1.108901 -0.405739,-2.240774 -1.109605,-3.048337 -0.05248,-0.06016 -0.106364,-0.118944 -0.162626,-0.175387 -0.246972,-0.247492 -0.523228,-0.454445 -0.817165,-0.625915 -0.254771,-0.148598 -0.522843,-0.270509 -0.797222,-0.367808 -0.113923,-0.0404 -0.227939,-0.07099 -0.341814,-0.09348 -0.158051,-0.03126 -0.31576,-0.04644 -0.472605,-0.04644 -1.161965,0 -2.275907,0.804327 -3.126791,1.625843 -0.878632,0.848414 -1.770506,1.773063 -2.763202,2.497332 -1.087936,0.793765 -2.282322,1.193516 -3.52618,1.583666 -1.606535,0.503887 -3.258298,0.825703 -4.917144,1.03075 -1.474886,0.182236 -2.9695695,0.288237 -4.4599609,0.288237 -0.5915377,0 -1.1821533,-0.01671 -1.7708912,-0.05195 -0.034138,-0.0017 -0.068305,-0.0041 -0.1024134,-0.0064 -0.018993,-0.0012 -0.037986,-0.0024 -0.056894,-0.0024 -0.2531814,0 -0.4934563,0.129341 -0.6488531,0.352532 -0.1670107,0.239793 -0.2137804,0.555774 -0.1244738,0.841519 0.6714938,2.148986 1.8569748,4.077914 3.523526,5.733253 z M 7.0478948,29.782693 c 4.717e-4,0 0.00112,0 0.00159,0 0.082758,5.86e-4 0.1683567,0.0012 0.2562199,0.0012 1.2047462,0 2.8834873,-0.05873 4.7667603,-0.294811 3.984658,-0.499435 7.232942,-1.567429 9.692044,-3.181602 0.06985,-0.04585 0.14832,-0.06875 0.22693,-0.06875 0.07423,0 0.148509,0.02035 0.215756,0.06106 1.429315,0.865181 3.650409,2.14724 5.234155,2.769655 0.196008,0.07703 0.317301,0.293326 0.293601,0.521027 -0.189163,1.820223 -0.725639,4.136698 -2.135346,5.936021 -1.443866,1.842823 -3.575984,2.842651 -6.339284,2.973 -0.0086,4.99e-4 -0.01726,5.87e-4 -0.02588,5.87e-4 -0.03581,0 -0.07153,-0.0035 -0.106939,-0.01032 -0.27847,-0.05418 -0.965432,-0.200063 -1.887268,-0.479539 0.262771,-0.127804 0.534593,-0.281018 0.809313,-0.451901 0.245957,-0.153055 0.494036,-0.319797 0.739608,-0.49434 0.759694,-0.539705 1.495358,-1.152454 2.067716,-1.656664 0.132419,-0.116557 0.0082,-0.344363 -0.148173,-0.272163 -1.251229,0.578168 -2.849813,0.964812 -4.280138,1.218984 -0.449578,0.0799 -0.88224,0.146588 -1.282542,0.202186 -0.468215,0.06504 -0.891537,0.114645 -1.24477,0.151783 -0.09205,-0.04475 -0.18435,-0.09014 -0.276983,-0.136929 -0.796017,-0.401609 -1.538707,-0.841412 -2.225425,-1.315592 0.299717,-0.03055 0.614652,-0.08531 0.934075,-0.156878 0.290176,-0.06504 0.583679,-0.143773 0.872558,-0.230193 0.85064,-0.254436 1.659519,-0.575724 2.212808,-0.812338 0.1053,-0.04504 0.06778,-0.218043 -0.04472,-0.206162 -1.0071,0.10674 -2.403995,0.116557 -3.596889,0.09725 -0.390758,-0.0063 -0.759501,-0.01579 -1.085566,-0.02594 -0.428815,-0.01343 -0.783448,-0.02803 -1.0167876,-0.03865 C 9.537466,33.756572 9.4033592,33.628979 9.2732521,33.499269 9.1048954,33.331465 8.9427523,33.160319 8.7858147,32.986463 c 0.2421527,-0.02703 0.4935537,-0.06949 0.7488618,-0.123295 0.2387286,-0.05031 0.4805445,-0.110505 0.7210645,-0.177404 0.949872,-0.263988 1.876674,-0.630049 2.489785,-0.892178 0.1053,-0.04509 0.06778,-0.218102 -0.04472,-0.206215 -0.945487,0.100266 -2.234483,0.115014 -3.375738,0.100477 -0.2815097,-0.0035 -0.5539133,-0.0089 -0.8100349,-0.01525 -0.2850265,-0.007 -0.5498208,-0.01518 -0.7841208,-0.02333 -0.3316022,-0.485431 -0.6246227,-0.989323 -0.8776132,-1.510827 -0.078087,-0.160802 0.029308,-0.355557 0.1946556,-0.355557 z"
     id="path3404"
     inkscape:connector-curvature="0"
     style="fill:#3d6480;fill-opacity:1" /><ellipse
     cx="33.466946"
     cy="34.326889"
     id="circle3406"
     style="fill:#ea102a;fill-opacity:1;stroke:none;stroke-opacity:1"
     rx="1.9331778"
     ry="2.1290956" /><ellipse
     cx="29.29756"
     cy="39.202724"
     id="circle3408"
     style="fill:#ea102a;fill-opacity:1;stroke:none;stroke-opacity:1"
     rx="0.97665662"
     ry="1.0756357" /><ellipse
     cx="34.593605"
     cy="38.95459"
     id="circle3410"
     style="fill:#ea102a;fill-opacity:1;stroke:none;stroke-opacity:1"
     rx="0.97665662"
     ry="1.0756357" /><path
     style="opacity:1;fill:#eff9fe;fill-opacity:1;stroke:none;stroke-width:3.41462922;stroke-miterlimit:4;stroke-dasharray:none;stroke-opacity:1"
     d="m 18.80944,38.403448 c -0.158317,-0.03636 -0.562954,-0.139082 -0.899195,-0.228299 l -0.611352,-0.162216 0.446865,-0.257755 c 0.775144,-0.447109 1.519474,-0.983842 2.533298,-1.826761 0.580239,-0.482424 0.651193,-0.555738 0.640072,-0.661387 -0.01899,-0.180436 -0.132321,-0.170889 -0.740623,0.06239 -1.214162,0.465629 -2.469737,0.790059 -4.11463,1.063184 -0.767362,0.127418 -1.866011,0.272773 -2.061708,0.272773 -0.125532,0 -0.343779,-0.09767 -0.907021,-0.405919 -0.407943,-0.223256 -0.942117,-0.536064 -1.187054,-0.69513 l -0.445341,-0.289219 0.451902,-0.07641 c 0.653118,-0.110429 1.470181,-0.346943 2.433149,-0.704319 1.012071,-0.375596 1.151393,-0.438366 1.151393,-0.518735 0,-0.134566 -0.09698,-0.15332 -0.555134,-0.10735 -0.537908,0.05395 -4.012982,0.06523 -4.756178,0.01542 L 9.6671781,33.848832 9.2502538,33.440361 C 9.0209412,33.215704 8.8392614,33.025352 8.8465235,33.017359 c 0.0073,-0.008 0.197884,-0.04697 0.4236152,-0.08657 0.7925533,-0.139111 1.7215103,-0.420657 2.8710593,-0.870159 0.358226,-0.140078 0.660993,-0.282461 0.672818,-0.316408 0.03007,-0.08626 -0.06801,-0.203089 -0.147701,-0.175949 -0.186668,0.06357 -2.415934,0.120122 -3.6085516,0.09154 L 7.7359084,31.628133 7.5207707,31.288772 C 7.1966109,30.777443 6.8637671,30.138311 6.8637671,30.027184 c 0,-0.181063 0.091604,-0.210442 0.7092718,-0.227477 2.2730622,-0.0627 2.9954071,-0.10979 4.4925451,-0.292858 3.388735,-0.414382 6.464262,-1.330874 8.731409,-2.601909 0.286459,-0.160597 0.65962,-0.37515 0.829242,-0.476783 0.210176,-0.125928 0.341152,-0.177679 0.411214,-0.162473 0.05654,0.01226 0.380368,0.18759 0.719616,0.389594 1.521601,0.906012 3.326427,1.860497 4.276593,2.261679 0.311239,0.131411 0.489196,0.234656 0.570514,0.330987 0.115177,0.136448 0.117468,0.14874 0.09016,0.483996 -0.06642,0.815639 -0.384627,2.265737 -0.672514,3.06471 -0.67532,1.874209 -1.566066,3.13619 -2.909216,4.121686 -1.113838,0.817245 -2.429882,1.298713 -4.075675,1.491071 -0.688372,0.08046 -0.854716,0.07964 -1.227491,-0.006 z"
     id="path4315"
     inkscape:connector-curvature="0" /><path
     style="opacity:1;fill:#3d6480;fill-opacity:1;stroke:#3d6480;stroke-width:0.17261806;stroke-miterlimit:4;stroke-dasharray:none;stroke-opacity:1"
     d="m 29.00747,20.741082 c -0.31672,-0.27045 -1.00208,-0.673579 -1.418678,-0.834457 -0.147007,-0.05677 -0.282026,-0.117178 -0.300038,-0.134231 -0.02415,-0.02287 5.724248,-12.3673187 8.08392,-17.3598197 0.325284,-0.6882279 0.610142,-0.9122108 1.159957,-0.9120577 0.277255,5.87e-5 0.362176,0.019237 0.540242,0.121952 0.433292,0.2499079 0.658143,0.7038558 0.622254,1.2562514 -0.01943,0.2990849 -0.07986,0.4319327 -4.189202,9.209596 -2.293213,4.898374 -4.178739,8.904428 -4.190044,8.902347 -0.01129,-0.0024 -0.150094,-0.114393 -0.308411,-0.249581 z"
     id="path4319"
     inkscape:connector-curvature="0" /></svg>