<?xml version="1.0" encoding="UTF-8" standalone="no"?>
<!-- Generator: Adobe Illustrator 16.0.0, SVG Export Plug-In . SVG Version: 6.00 Build 0)  -->

<svg
   xmlns:dc="http://purl.org/dc/elements/1.1/"
   xmlns:cc="http://creativecommons.org/ns#"
   xmlns:rdf="http://www.w3.org/1999/02/22-rdf-syntax-ns#"
   xmlns:svg="http://www.w3.org/2000/svg"
   xmlns="http://www.w3.org/2000/svg"
   xmlns:sodipodi="http://sodipodi.sourceforge.net/DTD/sodipodi-0.dtd"
   xmlns:inkscape="http://www.inkscape.org/namespaces/inkscape"
   version="1.1"
   id="Capa_1"
   x="0px"
   y="0px"
   width="732.438px"
   height="732.438px"
   viewBox="0 0 732.438 732.438"
   style="enable-background:new 0 0 732.438 732.438;"
   xml:space="preserve"
   inkscape:version="0.91 r13725"
   sodipodi:docname="cleanse.svg"><metadata
     id="metadata3446"><rdf:RDF><cc:Work
         rdf:about=""><dc:format>image/svg+xml</dc:format><dc:type
           rdf:resource="http://purl.org/dc/dcmitype/StillImage" /><dc:title /></cc:Work></rdf:RDF></metadata><defs
     id="defs3444" /><sodipodi:namedview
     pagecolor="#ffffff"
     bordercolor="#666666"
     borderopacity="1"
     objecttolerance="10"
     gridtolerance="10"
     guidetolerance="10"
     inkscape:pageopacity="0"
     inkscape:pageshadow="2"
     inkscape:window-width="1920"
     inkscape:window-height="1027"
     id="namedview3442"
     showgrid="false"
     inkscape:zoom="0.63565744"
     inkscape:cx="-10.051839"
     inkscape:cy="371.37569"
     inkscape:window-x="-8"
     inkscape:window-y="-8"
     inkscape:window-maximized="1"
     inkscape:current-layer="Capa_1" /><path
     d="M 637.88567,28.598414 479.07937,345.12917 c 0.91108,0.26298 1.82032,0.54215 2.72306,0.84133 6.70572,2.22005 13.00176,4.92603 18.86405,8.09793 7.08665,3.83505 13.52914,8.35708 19.28484,13.52798 L 679.07275,50.436796 c 5.86599,-11.691919 1.40231,-26.059326 -9.97191,-32.089654 -11.37423,-6.03128 -25.34825,-1.4416 -31.21517,10.251272 z"
     id="path3402"
     inkscape:connector-curvature="0" /><path
     d="m 113.20786,615.6364 c 25.24722,23.40766 56.24736,43.80444 92.13937,60.62057 60.61187,28.40133 113.95357,36.78795 116.19375,37.13192 0.0621,0.01 0.12512,0.0181 0.1863,0.0267 0.70718,0.0991 1.41807,0.14864 2.13081,0.14864 0.17239,0 0.34386,-0.003 0.51625,-0.009 63.76406,-2.14001 113.46141,-23.97077 147.70921,-64.88629 45.04275,-53.8118 61.32183,-134.72338 58.15758,-204.2832 -0.90738,-19.91561 -7.8068,-40.24379 -21.34984,-54.74745 -1.00933,-1.08048 -2.04647,-2.1362 -3.12902,-3.14999 -4.75193,-4.44485 -10.06738,-8.16176 -15.72298,-11.24124 -4.90207,-2.66881 -10.05996,-4.85837 -15.33926,-6.60582 -2.19198,-0.72604 -4.38582,-1.27486 -6.57688,-1.67885 -3.04098,-0.5612 -6.07546,-0.83371 -9.09326,-0.83371 -22.35732,0 -43.79058,14.44554 -60.16235,29.19979 -16.90563,15.23732 -34.06613,31.84382 -53.16653,44.85157 -20.93276,14.25593 -43.91385,21.43535 -67.8468,28.4423 -30.91116,9.04978 -62.69263,14.82952 -94.61034,18.51213 -28.3781,3.2729 -57.13713,5.17661 -85.813668,5.17661 -11.381639,0 -22.745669,-0.30014 -34.073551,-0.9328 -0.657132,-0.0362 -1.314264,-0.0696 -1.970469,-0.11624 -0.365177,-0.0257 -0.73128,-0.0391 -1.094603,-0.0391 -4.87149,0 -9.494585,2.32295 -12.484583,6.33142 -3.213367,4.30669 -4.113332,9.98162 -2.394964,15.11345 12.9202,38.59544 35.729821,73.23862 67.795828,102.96816 z M 91.14991,524.55835 c 0.0093,0 0.01854,0 0.02873,0 1.592317,0.0105 3.239318,0.0171 4.929881,0.0171 23.180359,0 55.480859,-1.05476 91.716739,-5.29476 76.6685,-8.96975 139.16834,-28.15074 186.48371,-57.14091 1.34392,-0.82323 2.85375,-1.23484 4.36636,-1.23484 1.42826,0 2.85746,0.36588 4.15133,1.09668 27.5013,15.53841 70.23713,38.56399 100.7099,49.74235 3.77132,1.38348 6.10512,5.26808 5.64911,9.35754 -3.63972,32.69087 -13.96197,74.29432 -41.08605,106.60979 -27.78121,33.09677 -68.80516,51.05341 -121.97354,53.39446 -0.16591,0.009 -0.33181,0.0114 -0.49772,0.0114 -0.68957,0 -1.37636,-0.0629 -2.05759,-0.1858 -5.35808,-0.97282 -18.5758,-3.59304 -36.31281,-8.61244 5.05594,-2.29532 10.28611,-5.04703 15.5719,-8.11603 4.73247,-2.74885 9.50571,-5.74353 14.23076,-8.87827 14.61725,-9.69293 28.772,-20.69787 39.78476,-29.75337 2.54789,-2.09332 0.15756,-6.18468 -2.85097,-4.88791 -24.07476,10.38371 -54.83299,17.32779 -82.35376,21.89269 -8.65023,1.43493 -16.97514,2.63261 -24.67721,3.63116 -9.00892,1.16814 -17.15402,2.05902 -23.95057,2.72599 -1.77119,-0.80322 -3.54703,-1.61883 -5.32935,-2.4592 -15.31609,-7.21277 -29.60616,-15.11156 -42.81924,-23.62776 5.76682,-0.54882 11.82652,-1.53212 17.97242,-2.81746 5.58331,-1.16814 11.23056,-2.58211 16.78884,-4.13424 16.36714,-4.56967 31.93069,-10.33988 42.57642,-14.58941 2.02608,-0.80893 1.30407,-3.91604 -0.86011,-3.70261 -19.37752,1.91705 -46.25506,2.09332 -69.20741,1.7465 -7.51856,-0.11339 -14.61355,-0.28299 -20.88735,-0.46593 -8.25076,-0.24106 -15.07418,-0.50308 -19.56381,-0.69364 -2.63317,-2.26483 -5.2135,-4.55633 -7.7169,-6.88595 -3.23932,-3.01374 -6.35908,-6.0875 -9.37873,-9.20985 4.65924,-0.48594 9.49643,-1.24818 14.40871,-2.21433 4.59343,-0.90422 9.24619,-1.9847 13.87392,-3.1862 18.27643,-4.74117 36.1089,-11.31555 47.90576,-16.02338 2.02608,-0.80989 1.30407,-3.917 -0.86011,-3.70357 -18.19208,1.80081 -42.99349,2.06569 -64.95227,1.80462 -5.41647,-0.0648 -10.65778,-0.16007 -15.5858,-0.27346 -5.48414,-0.12577 -10.579,-0.2725 -15.08716,-0.41923 -6.380395,-8.71821 -12.018385,-17.76799 -16.886167,-27.1341 -1.502414,-2.88796 0.563521,-6.38572 3.745375,-6.38572 z"
     id="path3404"
     inkscape:connector-curvature="0"
     style="fill:#3d6480;fill-opacity:1" /><ellipse
     cx="599.47632"
     cy="606.1712"
     id="circle3406"
     style="fill:#ea102a;fill-opacity:1;stroke:none;stroke-opacity:1"
     rx="37.196087"
     ry="38.238129" /><ellipse
     cx="519.25342"
     cy="693.74005"
     id="circle3408"
     style="fill:#ea102a;fill-opacity:1;stroke:none;stroke-opacity:1"
     rx="18.791754"
     ry="19.318201" /><ellipse
     cx="621.15424"
     cy="689.28375"
     id="circle3410"
     style="fill:#ea102a;fill-opacity:1;stroke:none;stroke-opacity:1"
     rx="18.791754"
     ry="19.318201" /><g
     id="g3412" /><g
     id="g3414" /><g
     id="g3416" /><g
     id="g3418" /><g
     id="g3420" /><g
     id="g3422" /><g
     id="g3424" /><g
     id="g3426" /><g
     id="g3428" /><g
     id="g3430" /><g
     id="g3432" /><g
     id="g3434" /><g
     id="g3436" /><g
     id="g3438" /><g
     id="g3440" /><path
     style="opacity:1;fill:#eff9fe;fill-opacity:1;stroke:none;stroke-width:3.41462922;stroke-miterlimit:4;stroke-dasharray:none;stroke-opacity:1"
     d="m 317.45265,679.38539 c -3.04615,-0.65279 -10.83177,-2.49787 -17.30137,-4.1002 l -11.76292,-2.91332 8.59809,-4.62926 c 14.91439,-8.02998 29.23597,-17.66965 48.74291,-32.80826 11.16431,-8.66421 12.52955,-9.98099 12.31553,-11.87838 -0.36553,-3.24062 -2.54595,-3.06917 -14.25023,1.12051 -23.36154,8.36253 -47.52003,14.18924 -79.16919,19.09457 -14.76473,2.28839 -35.90373,4.89896 -39.66917,4.89896 -2.41533,0 -6.61459,-1.75417 -17.45189,-7.29024 -7.84918,-4.00962 -18.12716,-9.62762 -22.83996,-12.48444 l -8.56872,-5.19422 8.69498,-1.37227 c 12.56657,-1.98326 28.28758,-6.231 46.816,-12.64939 19.47308,-6.74565 22.15378,-7.87298 22.15378,-9.31643 0,-2.4167 -1.86594,-2.75351 -10.68129,-1.928 -10.34982,0.96922 -77.21337,1.17165 -91.51309,0.27706 l -10.0188,-0.62677 -8.02209,-7.33603 c -4.41215,-4.03482 -7.90781,-7.45351 -7.76815,-7.59709 0.13968,-0.14358 3.80753,-0.84326 8.1508,-1.55484 15.24942,-2.49836 33.12336,-7.5549 55.24178,-15.62789 6.8925,-2.51569 12.71803,-5.07284 12.94563,-5.68256 0.57831,-1.54927 -1.30869,-3.64747 -2.84196,-3.16005 -3.59166,1.14178 -46.48477,2.15733 -69.43174,1.6439 l -25.43366,-0.56907 -4.13948,-6.09487 c -6.237102,-9.18338 -12.641379,-20.66212 -12.641379,-22.65783 0,-3.25194 1.762508,-3.77958 13.647069,-4.08556 43.73572,-1.126 57.63437,-1.9717 86.44059,-5.25965 65.20237,-7.44222 124.37829,-23.90217 168.0002,-46.72973 5.51174,-2.88431 12.69166,-6.73763 15.95539,-8.56293 4.04394,-2.26164 6.56409,-3.19106 7.91207,-2.91793 1.08791,0.22044 7.31866,3.36908 13.84612,6.99697 29.27696,16.27184 64.0034,33.41417 82.28551,40.61934 5.98847,2.36013 9.41256,4.21438 10.97714,5.94447 2.21611,2.45052 2.26019,2.67135 1.7349,8.69239 -1.27801,14.64871 -7.40063,40.69219 -12.93984,55.04162 -12.99374,33.66042 -30.1325,56.32537 -55.97586,74.02461 -21.43134,14.67761 -46.75319,23.32471 -78.41966,26.77936 -13.24498,1.44496 -16.44552,1.43052 -23.61804,-0.10655 z"
     id="path4315"
     inkscape:connector-curvature="0" /><path
     style="opacity:1;fill:#3d6480;fill-opacity:1;stroke:#3d6480;stroke-width:3.20885205;stroke-miterlimit:4;stroke-dasharray:none;stroke-opacity:1"
     d="m 513.67193,362.17283 c -6.09402,-4.85727 -19.28095,-12.09732 -27.29663,-14.98672 -2.82857,-1.01961 -5.42642,-2.10444 -5.77301,-2.41072 -0.46501,-0.41093 110.13964,-222.11459 155.54185,-311.778844 6.25883,-12.360503 11.73975,-16.383121 22.31865,-16.380369 5.33468,0.0014 6.96865,0.345667 10.39475,2.190174 8.33691,4.488333 12.66328,12.641137 11.97278,22.562025 -0.37385,5.371532 -1.53654,7.757418 -80.60402,165.402524 -44.12359,87.97381 -80.40273,159.92178 -80.62032,159.88438 -0.21757,-0.0374 -2.8879,-2.0545 -5.93405,-4.48245 z"
     id="path4319"
     inkscape:connector-curvature="0" /><path
     style="fill:#000000;fill-opacity:0"
     inkscape:connector-curvature="0"
     id="path3409"
     d="m -1497.1236,790.07788 922.35684,0 0,-748.357437 -922.35684,0 0,748.357437 z m 745.33191,-601.4821 38.68757,0 0,390.99443 100.21575,0 0,63.76767 -138.94375,0 0,-454.7621 z m -179.69304,0 38.68757,0 0,390.99443 100.21576,0 0,63.76767 -138.94375,0 0,-454.7621 z m -248.21487,0 38.8492,0 0,287.77004 c 0,37.51496 4.5277,65.24341 13.5831,83.03 9.0554,17.7866 23.0024,26.71873 41.76,26.71873 36.5045,0 54.7366,-36.81592 54.7366,-110.44777 l 0,-287.071 38.68758,0 0,294.29438 c 0,33.63142 -3.75961,62.99096 -11.23838,88.15627 -7.5192,25.24299 -18.3534,44.583 -32.5428,58.17538 -14.1895,13.67004 -31.1684,20.4274 -50.8962,20.4274 -29.3896,0 -52.1898,-14.91278 -68.4815,-44.81601 -16.2916,-29.82556 -24.4576,-70.91337 -24.4576,-123.18577 l 0,-293.05165 z m -257.5937,0 46.9344,0 116.1031,360.54751 0.9703,0 c -0.2022,-4.81559 -0.6469,-22.13616 -1.2937,-52.11706 -0.6468,-29.9809 -0.9702,-53.35979 -0.9702,-70.05899 l 0,-238.37146 35.4535,0 0,454.7621 -47.46,0 -116.3861,-362.4116 -1.2936,0 0.8085,20.27205 c 1.5362,38.52468 2.2639,73.78719 2.2639,105.70986 l 0,236.42969 -35.1301,0 0,-454.7621 z" /><path
     style="fill:#000000;fill-opacity:0"
     inkscape:connector-curvature="0"
     id="path3411"
     d="m -534.34088,-35.950282 -1003.20862,0 0,903.698882 1003.20862,0 0,-903.698882 z m -40.42588,826.028162 -922.35684,0 0,-748.357437 922.35684,0 0,748.357437 z" /><path
     style="fill:#000000;fill-opacity:0"
     inkscape:connector-curvature="0"
     id="path3413"
     d="m -1402.1632,406.92819 c 0,-31.92267 -0.7681,-67.18518 -2.2639,-105.70986 l -0.8085,-20.27205 1.2936,0 116.3861,362.4116 47.46,0 0,-454.7621 -35.4535,0 0,238.29379 c 0,16.77687 0.3234,40.15576 0.9702,70.05899 0.6468,29.9809 1.0511,47.30147 1.2937,52.11706 l -0.9703,0 -116.1031,-360.46984 -46.9344,0 0,454.7621 35.1301,0 0,-236.42969 z" /><path
     style="fill:#000000;fill-opacity:0"
     inkscape:connector-curvature="0"
     id="path3415"
     d="m -1086.7605,649.57154 c 19.7278,0 36.7067,-6.75736 50.8962,-20.4274 14.1894,-13.59238 25.064,-32.93239 32.5428,-58.17538 7.5192,-25.16531 11.23838,-54.52485 11.23838,-88.15627 l 0,-294.21671 -38.68758,0 0,287.071 c 0,73.63185 -18.2321,110.44777 -54.7366,110.44777 -18.7576,0 -32.7046,-8.85446 -41.76,-26.71873 -9.0554,-17.86426 -13.5831,-45.51504 -13.5831,-83.03 l 0,-287.77004 -38.8492,0 0,292.97398 c 0,52.2724 8.166,93.36021 24.4576,123.18577 16.2917,29.90323 39.0919,44.81601 68.4815,44.81601 z" /><polygon
     style="fill:#000000;fill-opacity:0"
     id="polygon3417"
     points="21.217,12.763 18.738,12.763 18.738,7.729 17.781,7.729 17.781,13.584 21.217,13.584 "
     transform="matrix(40.42588,0,0,77.670725,-1650.2973,-411.72125)" /><polygon
     style="fill:#000000;fill-opacity:0"
     id="polygon3419"
     points="25.663,12.763 23.183,12.763 23.183,7.729 22.226,7.729 22.226,13.584 25.663,13.584 "
     transform="matrix(40.42588,0,0,77.670725,-1650.2973,-411.72125)" /><path
     style="opacity:0.60660005;fill:#000000;fill-opacity:0;stroke:#100601;stroke-width:10.17394257;stroke-miterlimit:4;stroke-dasharray:none;stroke-opacity:1"
     d=""
     id="path5707"
     inkscape:connector-curvature="0" /></svg>